<svg viewBox="0 0 400 400" xmlns="http://www.w3.org/2000/svg">
  <path d="M349.188 181.87a23.833 23.833 0 00-18.354-7.144l-82.924 4.613 45.635-51.94c6.501-7.399 8.359-17.262 5.845-26.076a23.663 23.663 0 00-10.609-15.045c-.172-.123-109.082-63.35-109.082-63.35a23.793 23.793 0 00-27.775 2.816l-53.2 47.425c-9.802 8.738-10.661 23.76-1.917 33.557 8.744 9.796 23.779 10.655 33.58 1.916l40.333-35.956 33.344 19.35-58.857 66.99c-24.406 3.977-46.365 15.216-63.604 31.42l30.737 30.716c13.894-12.625 32.342-20.33 52.556-20.33 43.12 0 78.198 35.057 78.198 78.148 0 20.202-7.71 38.637-20.343 52.522l30.734 30.715c20.474-21.75 33.04-51.017 33.04-83.237 0-19.196-4.46-37.349-12.388-53.491l32.097-1.787-7.809 95.715c-1.066 13.084 8.682 24.553 21.774 25.621a24.3 24.3 0 001.958.078c12.26 0 22.666-9.412 23.678-21.837l10.022-122.89a23.757 23.757 0 00-6.668-18.52h-.001zM304.604 79.67c22 0 39.833-17.834 39.833-39.835 0-22-17.833-39.836-39.832-39.836-22.004 0-39.838 17.836-39.838 39.836s17.834 39.835 39.838 39.835h-.001zM164.467 356.63c-43.062 0-78.096-35.033-78.096-78.093a77.641 77.641 0 0113.486-43.815L68.83 203.696C52.665 224.326 43 250.296 43 278.537 43 345.618 97.382 400 164.467 400c28.24 0 54.208-9.665 74.837-25.832l-31.025-31.022a77.657 77.657 0 01-43.812 13.483z" fill="#0078C3" fill-rule="nonzero"/>
</svg>