<svg viewBox="0 0 400 400" xmlns="http://www.w3.org/2000/svg">
  <g fill-rule="nonzero" fill="none">
    <path fill="#264DE4" d="M199.655 398.99L84.218 366.942 58.493 78.41h282.67L315.412 366.9z"/>
    <path fill="#2965F1" d="M293.365 348.529l22.006-246.527H199.828V374.46l93.537-25.931z"/>
    <path d="M117.467 209.015l3.171 35.387h79.19v-35.387h-82.361zm-6.373-71.624l3.216 35.387h85.518V137.39h-88.734zm88.734 163.529l-.155.04-39.41-10.64-2.52-28.224h-35.524l4.958 55.564 72.488 20.122.163-.045V300.92z" fill="#EBEBEB"/>
    <path d="M125.018 0h42.859v17.924h-24.935v17.923h24.937V53.77h-42.86V0zm51.432 0h42.86v15.586h-24.937v3.116h24.937V54.55H176.45V38.183h24.936v-3.117H176.45V0zm51.433 0h42.86v15.586h-24.937v3.116h24.936V54.55h-42.86V38.183h24.937v-3.117h-24.935V0h-.001z" fill="#000"/>
    <path fill="#FFF" d="M281.963 209.015l6.388-71.624h-88.645v35.387h49.864l-3.22 36.237h-46.644v35.387h43.576l-4.109 45.895-39.468 10.653v36.815l72.547-20.105.531-5.98 8.317-93.163.863-9.502z"/>
  </g>
</svg>