<svg viewBox="0 0 400 400" xmlns="http://www.w3.org/2000/svg">
  <g fill-rule="nonzero" fill="none">
    <path d="M399.781 231.377c-.97-9.53-7.89-13.779-14.385-13.779-2.974 0-5.341.85-6.251 1.214l-1.275.547-1.093.79c-1.518 1.152-4.188 2.73-6.555 3.58-.121-1.942-.061-4.431.242-6.495l.061-.364c1.76-16.753-1.76-26.525-10.44-29.014-1.457-.425-2.974-.607-4.492-.607-5.28 0-9.954 2.55-12.99 4.735-2.548-3.217-6.797-5.038-12.138-5.038-7.952 0-14.325 3.703-16.631 9.65-.243.608-.547 1.518-.911 2.732-4.674-10.319-14.203-14.264-23.065-14.264-8.377 0-16.51 3.278-19.546 5.584-.12.122-.303.182-.485.365-7.951 5.645-14.143 12.746-18.513 21.304-2.124-7.405-6.798-14.324-15.174-19.544l-.121-.121c-.243-.122-.425-.243-.668-.365 8.194-14.567 15.478-33.869 11.108-52.26-4.614-19.606-16.147-22.52-22.641-22.52-2.67 0-5.402.486-8.194 1.457l-.182.061-.183.06c-12.2 4.795-17.541 12.019-18.695 13.719-1.213 1.82-14.567 22.094-17.784 51.775-.364 3.277-.728 6.676-1.093 10.076-1.88-2.671-4.976-5.099-9.893-6.617-1.517-.485-3.096-.667-4.674-.667-6.737 0-12.2 4.127-15.114 6.859l-.06-.061c-2.55-3.764-6.616-6.009-11.108-6.19h-1.093c-7.162 0-12.868 3.155-17.056 6.737-2.67-4.675-7.587-7.588-13.353-7.588-.486 0-.911 0-1.336.061h-.971c-7.952 0-14.203 3.763-16.752 10.015-.182.486-.425 1.092-.668 1.881-6.252-7.769-14.204-11.41-24.886-11.41H59.69c-6.677.12-23.308 2.913-33.506 25.857a66.972 66.972 0 00-3.702 10.622 13.887 13.887 0 00-5.828-1.275c-5.34 0-9.346 3.035-11.289 5.888-1.578 2.306-6.617 10.5-4.128 18.513 1.336 4.31 4.432 7.587 8.802 9.286 3.824 1.518 8.68 2.975 12.322 4.007 2.245 5.098 6.251 10.986 13.353 16.388 5.038 3.824 11.472 5.766 19.06 5.766 12.746 0 25.067-5.523 26.403-6.13l.485-.242.121-.122c2.428 2.549 5.646 4.37 9.712 5.16 1.214.241 2.792.424 4.613.424 6.92 0 11.715-3.52 16.146-10.137 3.642 5.706 10.258 8.922 18.088 8.922h.06c.426 0 .85.305 1.337.305 4.126 0 9.286-1.457 13.596-8.377 3.58 6.434 10.136 10.136 17.906 10.136 6.919 0 12.928-2.852 14.02-3.398l.243-.122c2.307-1.214 4.25-2.306 5.767-3.156 5.16 2.731 12.989 5.766 22.58 5.766 1.639 0 3.277-.06 4.916-.242l.425-.06.425-.062c20.334-4.006 33.566-8.862 41.456-12.565 5.524 6.192 14.325 12.14 26.89 13.05 1.396.122 2.852.182 4.248.182 10.32 0 18.574-2.913 24.644-6.13 1.942 2.064 4.37 3.945 7.527 5.22a14.89 14.89 0 005.826 1.153c12.625 0 18.514-15.053 20.153-20.151l3.034-8.133c2.671 2.852 6.07 5.159 10.38 6.373a27.813 27.813 0 007.526 1.03c13.9 0 27.253-9.832 29.378-11.47 3.824-3.156 8.012-9.652 7.101-18.574" fill="#FFF"/>
    <path d="M272.443 235.49s-1.76-6.19 4.795-18.149c6.495-11.896 11.594-5.402 11.594-5.402s5.584 6.07-.789 15.114c-6.373 9.105-15.6 8.438-15.6 8.438m-50.076 8.618c-7.465 19.545-25.614 11.594-25.614 11.594s-2.064-6.98 3.824-26.586c5.888-19.545 19.726-11.897 19.726-11.897s9.53 7.344 2.064 26.89m-13.535-81.883s11.29-29.439 14.021-15.114c2.731 14.325-23.672 56.935-23.672 56.935.242-9.59 9.651-41.82 9.651-41.82M47.375 235.488c.485-18.937 12.867-27.192 17.177-23.065 4.31 4.128 2.732 13.05-5.402 18.635-8.073 5.584-11.775 4.43-11.775 4.43m342.094-3.095c-.607-6.374-6.373-4.006-6.373-4.006s-9.226 7.162-17.36 6.373c-8.073-.85-5.523-18.938-5.523-18.938s1.76-16.63-3.036-18.027c-4.794-1.396-10.682 4.31-10.682 4.31s-7.344 8.132-10.805 18.452l-.97.303s1.092-18.148-.183-22.276c-.97-2.064-9.711-1.882-11.107 1.76-1.457 3.642-8.438 29.075-8.923 39.758 0 0-13.657 11.593-25.615 13.535-11.957 1.882-14.81-5.584-14.81-5.584s32.473-9.044 31.32-34.963c-1.093-25.918-26.16-16.328-29.014-14.203-2.731 2.064-17.36 10.865-21.668 35.327-.122.85-.425 4.492-.425 4.492s-12.565 8.437-19.545 10.682c0 0 19.545-32.898-4.31-47.89-10.804-6.495-19.423 7.162-19.423 7.162s32.29-35.934 25.13-66.344c-3.4-14.445-10.624-16.023-17.3-13.656-10.076 4.006-13.9 9.833-13.9 9.833s-13.05 18.937-16.085 47.101c-3.035 28.164-7.466 62.155-7.466 62.155s-6.191 6.07-11.897 6.373c-5.705.304-3.156-16.995-3.156-16.995s4.431-26.404 4.127-30.834c-.303-4.431-.607-6.86-5.887-8.438-5.22-1.578-10.987 5.1-10.987 5.1s-15.113 22.882-16.388 26.403l-.79 1.457-.788-.971s10.683-31.2.486-31.624c-10.198-.486-16.875 11.107-16.875 11.107s-11.593 19.424-12.079 21.61l-.789-.972s4.796-22.58 3.825-28.164c-.971-5.584-6.192-4.43-6.192-4.43s-6.676-.79-8.437 3.52c-1.76 4.309-8.133 32.777-8.922 41.82 0 0-16.692 11.958-27.679 12.08-10.986.181-9.833-6.981-9.833-6.981s40.242-13.778 29.256-40.971c-4.916-6.98-10.682-9.166-18.755-9.044-8.133.182-17.663 5.099-24.219 19.727-3.095 6.98-4.37 13.596-4.37 18.634 0 0-7.527 1.457-11.35-1.76-3.824-3.156-6.01 0-6.01 0s-6.676 9.53-.182 12.078c6.495 2.55 16.57 4.917 16.57 4.917.912 4.128 3.643 10.865 11.595 16.874 11.896 9.044 34.84-1.396 34.84-1.396l9.408-5.584s.304 8.437 7.162 9.712c6.86 1.275 9.712-.121 21.61-29.014 6.98-14.81 7.465-14.022 7.465-14.022l.789-.182s-5.402 28.286-3.339 35.934c2.065 7.648 11.108 6.86 11.108 6.86s4.917 1.759 8.923-12.262 11.594-28.65 11.594-28.65h.97s-3.338 28.165 1.76 37.39c5.1 9.227 18.27 2.732 18.27 2.732s9.227-4.856 10.683-6.313c0 0 10.926 9.227 26.404 7.527 34.538-6.799 46.799-16.025 46.799-16.025s5.948 14.993 24.279 16.389c21.001 1.578 32.473-11.654 32.473-11.654s-.182 8.558 7.162 11.594c7.344 3.034 12.261-12.99 12.261-12.99l12.261-32.838h1.093s.607 21.002 12.746 24.522c12.201 3.46 27.922-8.68 27.922-8.68s3.824-2.549 3.157-8.922" fill="#E24B31"/>
  </g>
</svg>