<svg viewBox="0 0 400 400" xmlns="http://www.w3.org/2000/svg">
  <path d="M233.911 45.782l82.147 47.43a35.86 35.86 0 018.08-6.394c17.037-9.794 38.768-3.98 48.663 13.058 9.795 17.038 3.98 38.767-13.058 48.663a35.692 35.692 0 01-9.487 3.778v94.895c3.29.8 6.45 2.063 9.386 3.753 17.139 9.896 22.954 31.627 13.058 48.664-9.794 17.036-31.626 22.852-48.664 13.058a35.367 35.367 0 01-8.805-7.148l-81.648 47.139a35.654 35.654 0 011.799 11.222c0 19.588-15.914 35.606-35.604 35.606-19.69 0-35.604-15.917-35.604-35.606 0-3.5.502-6.88 1.44-10.074L83.489 306.41a35.867 35.867 0 01-7.97 6.277c-17.138 9.794-38.869 3.978-48.663-13.058-9.794-17.037-3.978-38.768 13.058-48.664a35.708 35.708 0 019.386-3.754v-94.894a35.692 35.692 0 01-9.487-3.778c-17.038-9.793-22.853-31.625-13.059-48.663C36.55 82.84 58.38 77.024 75.417 86.818a35.861 35.861 0 018.041 6.354L165.63 45.73a35.704 35.704 0 01-1.455-10.125C164.174 15.917 180.087 0 199.778 0c19.69 0 35.604 15.915 35.604 35.604 0 3.54-.514 6.954-1.47 10.178zm-8.558 14.614l82.343 47.541a35.554 35.554 0 003.385 27.544c5.012 8.719 13.177 14.5 22.24 16.752v95.014c-.463.113-.922.236-1.38.367L224.397 61.347c.325-.31.644-.628.957-.951zm-50.171.972L67.638 247.632c-.466-.135-.933-.26-1.403-.375v-95.024c9.062-2.252 17.227-8.033 22.24-16.752a35.556 35.556 0 003.37-27.596l82.32-47.528c.332.343.671.68 1.017 1.01v.001zm34.544 8.438l107.52 186.222a35.406 35.406 0 00-6.268 7.996 35.694 35.694 0 00-3.753 9.386H92.333a35.708 35.708 0 00-3.755-9.386 35.868 35.868 0 00-6.259-7.95l107.54-186.26a35.715 35.715 0 009.919 1.394c3.454 0 6.791-.489 9.948-1.402zm16.382 270.108l81.809-47.233a35.924 35.924 0 01-.657-2.337H92.288c-.114.463-.238.921-.37 1.378l82.208 47.466a35.497 35.497 0 0125.652-10.892 35.506 35.506 0 0126.33 11.618z" fill="#E535AB" fill-rule="evenodd"/>
</svg>