<svg viewBox="0 0 400 400" xmlns="http://www.w3.org/2000/svg">
  <g fill-rule="nonzero" fill="none">
    <path fill="#E44D26" d="M341.163 78.411L315.412 366.9l-115.757 32.09-115.437-32.046L58.493 78.41z"/>
    <path fill="#F16529" d="M199.828 374.46l93.537-25.931 22.006-246.527H199.828z"/>
    <path d="M149.767 172.778h50.061V137.39h-88.734l.846 9.493 8.698 97.518h79.19v-35.387h-46.826l-3.235-36.237zm7.976 89.318h-35.524l4.958 55.564 72.488 20.122.163-.045V300.92l-.155.04-39.41-10.64-2.52-28.224z" fill="#EBEBEB"/>
    <path d="M84.792 0h17.984v17.767h16.45V0h17.985v53.804h-17.983V35.787h-16.451v18.017H84.793V0zm76.067 17.843h-15.83V0h49.656v17.843h-15.84v35.96h-17.983v-35.96h-.003zM202.565 0h18.751l11.535 18.905L244.375 0h18.759v53.804h-17.91V27.136l-12.373 19.13h-.31l-12.38-19.13v26.668h-17.596V0zm69.518 0h17.989v36.02h25.29v17.784h-43.28V0h.001z" fill="#000"/>
    <path d="M199.706 244.402h43.576l-4.109 45.895-39.468 10.653v36.815l72.547-20.105.531-5.98 8.317-93.163.863-9.502h-82.257v35.387zm0-71.71v.086h85.477l.71-7.954 1.613-17.94.845-9.493h-88.645v35.302-.002z" fill="#FFF"/>
  </g>
</svg>