<svg viewBox="0 0 400 400" xmlns="http://www.w3.org/2000/svg">
  <g fill-rule="nonzero" fill="none">
    <path fill="#F7DF1E" d="M0 0h400v400H0z"/>
    <path d="M105.175 334.269l30.61-18.525c5.906 10.47 11.278 19.33 24.163 19.33 12.352 0 20.141-4.832 20.141-23.626V183.64h37.59v128.34c0 38.934-22.823 56.655-56.12 56.655-30.07 0-47.525-15.573-56.386-34.368m132.922-4.025l30.607-17.72c8.057 13.157 18.53 22.823 37.054 22.823 15.577 0 25.508-7.788 25.508-18.528 0-12.888-10.203-17.453-27.387-24.97l-9.396-4.03c-27.12-11.543-45.11-26.043-45.11-56.652 0-28.194 21.48-49.675 55.045-49.675 23.897 0 41.08 8.325 53.43 30.073l-29.268 18.797c-6.445-11.545-13.423-16.109-24.164-16.109-11.01 0-17.99 6.981-17.99 16.11 0 11.276 6.98 15.843 23.09 22.824l9.397 4.027c31.953 13.695 49.942 27.656 49.942 59.069 0 33.834-26.581 52.36-62.292 52.36-34.905 0-57.46-16.648-68.467-38.398" fill="#000"/>
  </g>
</svg>