<svg viewBox="0 0 400 400" xmlns="http://www.w3.org/2000/svg">
  <g fill-rule="nonzero" fill="none">
    <path d="M392.376 239.524c-2.326-7.044-8.418-11.95-16.297-13.127-3.715-.555-7.97-.318-13.005.72-8.776 1.81-15.286 2.5-20.038 2.633 17.935-30.28 32.519-64.81 40.914-97.315 13.576-52.56 6.321-76.503-2.156-87.333C359.359 16.435 326.627 1.035 287.139.564c-21.065-.258-39.557 3.901-49.204 6.892-8.982-1.585-18.64-2.47-28.773-2.633-18.995-.303-35.779 3.838-50.12 12.348-7.939-2.685-20.681-6.47-35.397-8.885-34.609-5.681-62.503-1.254-82.906 13.16C16.033 38.896 4.58 69.217 6.7 111.565c.672 13.446 8.193 54.355 20.036 93.152 6.806 22.3 14.063 40.818 21.571 55.046 10.647 20.174 22.04 32.054 34.829 36.32 7.168 2.389 20.192 4.061 33.89-7.348 1.737 2.103 4.054 4.193 7.128 6.134 3.905 2.462 8.679 4.474 13.447 5.666 17.183 4.296 33.279 3.222 47.01-2.8a881 881 0 01.205 6.791 799.6 799.6 0 00.302 9.47c.813 20.264 2.192 36.02 6.277 47.044.224.606.526 1.53.844 2.51 2.038 6.24 5.445 16.685 14.115 24.866 8.977 8.474 19.836 11.072 29.782 11.072 4.988 0 9.747-.654 13.921-1.548 14.879-3.19 31.777-8.047 44.002-25.453 11.557-16.455 17.175-41.238 18.192-80.288.132-1.105.253-2.16.37-3.164l.242-2.063 2.723.24.701.046c15.155.691 33.685-2.523 45.066-7.809 8.992-4.173 37.809-19.386 31.024-39.926" fill="#000"/>
    <path d="M366.464 243.518c-45.061 9.296-48.16-5.96-48.16-5.96C365.88 166.962 385.77 77.352 368.609 55.42 321.783-4.406 240.73 23.888 239.378 24.62l-.436.079c-8.903-1.848-18.865-2.948-30.063-3.132-20.388-.333-35.855 5.346-47.591 14.246 0 0-144.591-59.567-137.865 74.915 1.43 28.609 41.006 216.474 88.209 159.73 17.253-20.75 33.924-38.294 33.924-38.294 8.279 5.5 18.191 8.306 28.582 7.299l.807-.685c-.251 2.576-.136 5.095.323 8.079-12.16 13.586-8.586 15.97-32.895 20.975-24.599 5.07-10.149 14.094-.714 16.455 11.438 2.859 37.899 6.91 55.777-18.118l-.712 2.856c4.764 3.816 8.11 24.822 7.549 43.866-.56 19.043-.935 32.117 2.818 42.33 3.756 10.211 7.497 33.189 39.454 26.342 26.702-5.723 40.54-20.552 42.466-45.288 1.365-17.585 4.457-14.985 4.651-30.708l2.48-7.442c2.86-23.838.455-31.529 16.905-27.952l4 .352c12.106.55 27.955-1.949 37.256-6.271 20.027-9.294 31.906-24.814 12.158-20.737h.003" fill="#336791"/>
    <path d="M169.752 123.523c-4.061-.565-7.738-.043-9.599 1.366-1.045.793-1.37 1.711-1.458 2.343-.233 1.674.94 3.526 1.661 4.48 2.04 2.703 5.018 4.56 7.967 4.97.427.06.853.088 1.275.088 4.917 0 9.388-3.83 9.782-6.655.493-3.54-4.645-5.898-9.628-6.59m134.52.11c-.387-2.774-5.324-3.565-10.008-2.914-4.68.652-9.216 2.764-8.837 5.544.303 2.162 4.208 5.853 8.83 5.853.39 0 .784-.026 1.18-.082 3.086-.427 5.35-2.386 6.425-3.515 1.636-1.721 2.585-3.64 2.41-4.886" fill="#FFF"/>
    <path d="M381.458 242.462c-1.719-5.195-7.249-6.867-16.437-4.97-27.28 5.63-37.05 1.73-40.257-.631 21.204-32.303 38.648-71.352 48.059-107.784 4.457-17.257 6.92-33.285 7.12-46.348.224-14.338-2.219-24.874-7.255-31.31-20.306-25.948-50.11-39.866-86.185-40.248-24.801-.279-45.756 6.068-49.818 7.853-8.555-2.127-17.88-3.433-28.033-3.6-18.619-.301-34.713 4.156-48.037 13.243-5.788-2.155-20.745-7.29-39.038-10.237-31.624-5.09-56.754-1.233-74.688 11.472-21.398 15.16-31.277 42.26-29.363 80.545.644 12.88 7.983 52.505 19.565 90.451 15.245 49.946 31.818 78.22 49.254 84.037a22.06 22.06 0 006.99 1.156c6.36 0 14.159-2.867 22.273-12.621a802.775 802.775 0 0130.698-34.737c6.855 3.68 14.385 5.734 22.086 5.94.016.201.035.403.053.603a178.27 178.27 0 00-3.893 4.81c-5.337 6.775-6.447 8.185-23.625 11.722-4.886 1.009-17.863 3.683-18.054 12.78-.206 9.94 15.34 14.114 17.112 14.556 6.173 1.545 12.12 2.308 17.79 2.308 13.793 0 25.931-4.534 35.631-13.305-.298 35.433 1.179 70.348 5.433 80.986 3.485 8.71 11.997 29.991 38.885 29.991 3.946 0 8.288-.459 13.065-1.483 28.063-6.015 40.249-18.418 44.963-45.762 2.522-14.614 6.851-49.51 8.887-68.227 4.297 1.34 9.83 1.954 15.81 1.953 12.472 0 26.865-2.65 35.89-6.84 10.14-4.709 28.437-16.263 25.119-26.303zM314.63 115.977c-.092 5.526-.853 10.543-1.659 15.78-.868 5.63-1.765 11.454-1.99 18.522-.223 6.879.636 14.03 1.466 20.947 1.679 13.97 3.401 28.351-3.267 42.542a55.315 55.315 0 01-2.954-6.074c-.829-2.01-2.629-5.236-5.121-9.703-9.696-17.388-32.4-58.106-20.778-74.721 3.462-4.946 12.249-10.03 34.303-7.293zm-26.733-93.616c32.324.713 57.894 12.806 75.997 35.939 13.885 17.744-1.405 98.482-45.667 168.135-.445-.566-.892-1.13-1.342-1.693l-.56-.7c11.437-18.889 9.2-37.578 7.21-54.148-.818-6.8-1.591-13.223-1.394-19.256.203-6.394 1.048-11.879 1.867-17.182 1.004-6.535 2.027-13.297 1.745-21.268.21-.836.295-1.824.185-2.997-.72-7.644-9.447-30.521-27.235-51.227-9.73-11.326-23.92-24-43.294-32.549 8.333-1.727 19.729-3.338 32.488-3.054zM107.021 266.33c-8.94 10.748-15.112 8.687-17.142 8.011-13.227-4.412-28.576-32.37-42.108-76.703-11.709-38.36-18.551-76.934-19.094-87.751-1.709-34.21 6.584-58.05 24.649-70.862 29.4-20.849 77.736-8.37 97.159-2.041-.279.276-.57.533-.846.813-31.872 32.188-31.116 87.182-31.037 90.544-.004 1.297.106 3.134.254 5.66.549 9.25 1.57 26.465-1.158 45.96-2.533 18.117 3.052 35.849 15.32 48.65a54.962 54.962 0 003.965 3.74c-5.46 5.848-17.328 18.781-29.962 33.978zm34.06-45.445c-9.889-10.318-14.38-24.67-12.323-39.378 2.878-20.594 1.816-38.53 1.245-48.167-.08-1.349-.151-2.53-.192-3.462 4.656-4.129 26.233-15.69 41.62-12.164 7.022 1.608 11.3 6.39 13.08 14.614 9.206 42.58 1.218 60.327-5.2 74.59-1.323 2.937-2.573 5.714-3.64 8.587l-.827 2.221c-2.094 5.615-4.042 10.837-5.25 15.794-10.512-.03-20.738-4.521-28.514-12.636v.001zm1.613 57.425c-3.07-.767-5.83-2.099-7.45-3.203 1.353-.637 3.76-1.503 7.936-2.364 20.208-4.16 23.33-7.096 30.144-15.749 1.562-1.984 3.334-4.233 5.787-6.972l.003-.003c3.653-4.091 5.324-3.397 8.354-2.14 2.456 1.015 4.849 4.094 5.818 7.482.46 1.6.975 4.636-.712 7-14.236 19.933-34.982 19.677-49.88 15.949zm105.756 98.412c-24.721 5.297-33.474-7.317-39.242-21.737-3.723-9.309-5.553-51.288-4.255-97.647a5.586 5.586 0 00-.24-1.772 23.4 23.4 0 00-.692-3.276c-1.93-6.746-6.635-12.388-12.279-14.727-2.242-.93-6.357-2.634-11.303-1.369 1.055-4.345 2.884-9.253 4.867-14.566l.832-2.235c.936-2.52 2.112-5.13 3.354-7.894 6.717-14.921 15.916-35.36 5.932-81.53-3.74-17.294-16.227-25.74-35.157-23.778-11.349 1.175-21.732 5.753-26.91 8.38a86.99 86.99 0 00-3.084 1.639c1.445-17.425 6.906-49.988 27.333-70.591 12.862-12.97 29.991-19.376 50.86-19.03 41.122.672 67.492 21.775 82.373 39.362 12.825 15.153 19.769 30.418 22.54 38.651-20.841-2.12-35.015 1.994-42.2 12.267-15.632 22.345 8.551 65.715 20.174 86.559 2.132 3.82 3.971 7.121 4.55 8.524 3.785 9.173 8.685 15.297 12.262 19.767 1.097 1.37 2.16 2.698 2.97 3.859-6.312 1.82-17.65 6.024-16.617 27.04-.833 10.546-6.759 59.919-9.77 77.363-3.974 23.045-12.454 31.629-36.298 36.742v-.001zm103.188-118.085c-6.455 2.995-17.256 5.242-27.517 5.726-11.333.53-17.103-1.27-18.46-2.378-.637-13.097 4.237-14.465 9.397-15.913.81-.228 1.601-.45 2.365-.717.474.386.994.77 1.563 1.146 9.11 6.012 25.356 6.66 48.294 1.925l.252-.05c-3.094 2.893-8.388 6.775-15.894 10.26z" fill="#FFF"/>
  </g>
</svg>