<svg viewBox="0 0 400 400" xmlns="http://www.w3.org/2000/svg">
  <g fill-rule="nonzero" fill="none">
    <path d="M1.178 199.297c0 30.023 29.317 58.05 75.536 73.848-9.23 46.464-1.653 83.916 23.65 98.508 26.008 15 64.755 4.617 101.531-27.531 35.849 30.85 72.078 42.99 97.36 28.356 25.984-15.042 33.886-55.033 24.401-102.948 48.14-15.916 75.069-39.814 75.069-70.233 0-29.327-29.37-54.697-74.967-70.394 10.21-49.895 1.56-86.437-24.792-101.633-25.405-14.65-62.057-1.88-98.432 29.775-37.843-33.6-74.132-43.858-100.456-28.62C74.697 43.117 67.455 81.25 76.714 128.573c-44.66 15.57-75.536 41.516-75.536 70.724z" fill="#FFF"/>
    <path d="M314.102 144.49a236.506 236.506 0 00-11.366-3.58 214.843 214.843 0 001.756-7.752c8.603-41.763 2.978-75.406-16.231-86.481-18.417-10.622-48.54.453-78.961 26.926a236.15 236.15 0 00-8.79 8.067 214.958 214.958 0 00-5.85-5.403c-31.883-28.31-63.841-40.237-83.03-29.13-18.4 10.652-23.85 42.282-16.105 81.86.77 3.92 1.64 7.818 2.61 11.694a234.18 234.18 0 00-13.068 4.109c-37.378 13.031-61.25 33.456-61.25 54.64 0 21.882 25.625 43.829 64.56 57.135 3.157 1.074 6.34 2.07 9.546 2.984a230.958 230.958 0 00-2.773 12.605c-7.384 38.89-1.617 69.77 16.734 80.356 18.955 10.93 50.768-.304 81.746-27.382 2.448-2.141 4.906-4.411 7.367-6.791 3.1 2.99 6.282 5.894 9.544 8.708 30.006 25.82 59.64 36.247 77.976 25.633 18.938-10.963 25.09-44.136 17.1-84.497-.61-3.083-1.32-6.232-2.117-9.438 2.234-.66 4.427-1.34 6.566-2.05 40.475-13.41 66.807-35.089 66.807-57.262 0-21.261-24.64-41.824-62.771-54.95z" fill="#53C1DE"/>
    <path d="M305.322 242.387c-1.93.64-3.911 1.257-5.93 1.855-4.469-14.145-10.5-29.187-17.878-44.726 7.042-15.172 12.84-30.02 17.183-44.075a222.05 222.05 0 0110.495 3.312c32.672 11.245 52.6 27.875 52.6 40.688 0 13.648-21.523 31.367-56.469 42.946h-.001zm-14.5 28.733c3.533 17.847 4.037 33.983 1.697 46.597-2.103 11.335-6.332 18.89-11.56 21.917-11.126 6.441-34.922-1.93-60.58-24.012a216.233 216.233 0 01-8.879-8.094c9.948-10.881 19.89-23.531 29.594-37.578 17.069-1.514 33.194-3.99 47.817-7.37.719 2.906 1.36 5.754 1.91 8.54zm-146.64 67.402c-10.871 3.839-19.529 3.948-24.762.931-11.137-6.422-15.765-31.219-9.451-64.476.75-3.93 1.61-7.84 2.578-11.722 14.46 3.198 30.469 5.5 47.578 6.887 9.767 13.746 19.997 26.38 30.306 37.444a185.724 185.724 0 01-6.726 6.194c-13.699 11.975-27.425 20.468-39.522 24.742h-.002zm-50.927-96.219c-17.216-5.884-31.433-13.531-41.178-21.875-8.757-7.5-13.179-14.945-13.179-20.987 0-12.855 19.168-29.254 51.135-40.399a217.618 217.618 0 0112.151-3.823c4.42 14.37 10.214 29.395 17.208 44.589-7.084 15.42-12.962 30.684-17.422 45.223a185.794 185.794 0 01-8.715-2.728zM110.327 126.1c-6.636-33.91-2.23-59.49 8.859-65.91 11.812-6.837 37.93 2.913 65.458 27.355a197.175 197.175 0 015.297 4.89c-10.257 11.015-20.393 23.554-30.075 37.22-16.605 1.539-32.5 4.01-47.113 7.322-.9-3.606-1.71-7.233-2.426-10.879v.002zm152.292 37.605a479.659 479.659 0 00-10.736-17.657c11.265 1.422 22.058 3.313 32.192 5.627-3.042 9.752-6.834 19.948-11.3 30.402a525.655 525.655 0 00-10.156-18.372zm-62.105-60.49c6.956 7.535 13.923 15.95 20.777 25.08a444.132 444.132 0 00-41.728-.01c6.859-9.044 13.885-17.448 20.951-25.07zm-62.503 60.593a445.689 445.689 0 00-9.966 18.258c-4.392-10.418-8.15-20.66-11.218-30.55 10.073-2.255 20.815-4.097 32.007-5.496a443.422 443.422 0 00-10.823 17.788zm11.145 90.13c-11.562-1.291-22.467-3.04-32.537-5.232 3.117-10.065 6.958-20.528 11.444-31.168a442.959 442.959 0 0021.093 36.4zm51.775 42.795c-7.148-7.714-14.278-16.245-21.242-25.422 6.76.266 13.652.4 20.656.4 7.197 0 14.311-.161 21.313-.474-6.875 9.344-13.817 17.888-20.727 25.496zm71.988-79.738c4.719 10.757 8.697 21.163 11.856 31.058-10.237 2.336-21.29 4.217-32.934 5.614a527.403 527.403 0 0010.839-17.965 479.114 479.114 0 0010.239-18.707zm-23.305 11.172a494.498 494.498 0 01-16.937 27.328 454.634 454.634 0 01-32.332 1.135c-10.986 0-21.673-.343-31.965-1.01a427.81 427.81 0 01-32.317-55.817 427.913 427.913 0 0115.017-28.462v.003a423.831 423.831 0 0117.118-27.253 427.319 427.319 0 0164.357.009 454.224 454.224 0 0117.01 27.16 494.403 494.403 0 0115.22 28.33 454.384 454.384 0 01-15.17 28.577zm31.114-168.425c11.822 6.819 16.42 34.314 8.992 70.372a199.259 199.259 0 01-1.587 7.019c-14.647-3.38-30.553-5.896-47.206-7.458-9.702-13.814-19.754-26.375-29.844-37.247a221.75 221.75 0 018.119-7.447c26.065-22.684 50.426-31.64 61.526-25.239z" fill="#FFF"/>
    <path d="M200.345 167.914c17.413 0 31.527 14.116 31.527 31.527 0 17.412-14.114 31.528-31.527 31.528-17.41 0-31.526-14.116-31.526-31.528 0-17.411 14.115-31.527 31.526-31.527" fill="#53C1DE"/>
  </g>
</svg>