<svg viewBox="0 0 400 400" xmlns="http://www.w3.org/2000/svg">
  <path d="M344.327 222.008c-13.957.079-26.042 3.43-36.179 8.422-3.743-7.408-7.485-13.88-8.108-18.714-.702-5.614-1.56-9.045-.702-15.75.857-6.707 4.756-16.22 4.756-17-.08-.7-.859-4.132-8.89-4.21-8.03-.078-14.97 1.56-15.75 3.665-.78 2.105-2.339 6.94-3.353 11.93-1.403 7.33-16.062 33.294-24.405 46.94-2.73-5.303-5.068-9.981-5.537-13.725-.7-5.613-1.56-9.044-.7-15.75.857-6.706 4.755-16.218 4.755-16.997-.078-.702-.857-4.133-8.888-4.21-8.032-.079-14.97 1.559-15.75 3.664-.78 2.105-1.638 7.095-3.353 11.93-1.638 4.834-21.131 48.187-26.2 59.493-2.573 5.77-4.833 10.37-6.471 13.49-1.638 3.118-.078.233-.234.545-1.404 2.651-2.183 4.133-2.183 4.133v.078c-1.092 1.95-2.262 3.82-2.808 3.82-.39 0-1.17-5.224.156-12.397 2.885-15.05 9.902-38.518 9.825-39.376 0-.39 1.325-4.523-4.523-6.628-5.692-2.105-7.719 1.404-8.187 1.404-.468 0-.858 1.247-.858 1.247s6.316-26.431-12.086-26.431c-11.54 0-27.446 12.553-35.321 24.015-4.99 2.73-15.595 8.498-26.823 14.659-4.289 2.34-8.733 4.834-12.944 7.095l-.856-.937c-22.3-23.781-63.548-40.624-61.833-72.592.624-11.618 4.679-42.262 79.221-79.377 61.053-30.409 109.942-22.066 118.44-3.508 12.086 26.51-26.12 75.79-89.59 82.885-24.171 2.729-36.882-6.628-40.078-10.137-3.353-3.665-3.82-3.82-5.068-3.119-2.027 1.092-.78 4.367 0 6.316 1.871 4.912 9.669 13.645 22.924 18.012 11.617 3.82 40 5.926 74.308-7.33 38.44-14.892 68.46-56.218 59.649-90.76-8.967-35.166-67.29-46.706-122.417-27.134-32.827 11.696-68.383 29.941-93.958 53.879-30.41 28.382-35.244 53.177-33.216 63.47 7.096 36.725 57.7 60.662 77.972 78.362-1.013.545-1.949 1.091-2.807 1.56-10.136 4.989-48.733 25.185-58.401 46.548-10.916 24.172 1.715 41.56 10.136 43.9 26.043 7.251 52.71-5.77 67.135-27.213 14.346-21.442 12.631-49.278 6.004-61.988l-.235-.468 7.953-4.678c5.147-3.041 10.215-5.848 14.659-8.266-2.494 6.784-4.289 14.815-5.223 26.51-1.092 13.725 4.522 31.502 11.93 38.52 3.274 3.04 7.173 3.118 9.59 3.118 8.577 0 12.476-7.096 16.764-15.594 5.302-10.37 9.98-22.379 9.98-22.379s-5.847 32.515 10.137 32.515c5.848 0 11.696-7.563 14.347-11.462v.078s.156-.234.468-.78c.327-.483.64-.977.936-1.48v-.156c2.339-4.055 7.563-13.334 15.36-28.694 10.058-19.805 19.727-44.6 19.727-44.6s.936 6.081 3.821 16.062c1.715 5.926 5.457 12.397 8.342 18.713-2.339 3.275-3.742 5.147-3.742 5.147l.078.078a221.42 221.42 0 01-6.16 7.797c-7.953 9.513-17.465 20.352-18.713 23.471-1.481 3.664-1.17 6.393 1.715 8.577 2.106 1.56 5.848 1.87 9.825 1.56 7.174-.47 12.164-2.262 14.659-3.354 3.899-1.404 8.343-3.509 12.632-6.628 7.797-5.769 12.553-13.956 12.085-24.872-.234-6.004-2.183-11.93-4.6-17.544.702-1.014 1.404-2.028 2.105-3.12 12.32-18.012 21.833-37.816 21.833-37.816s.935 6.082 3.82 16.062c1.48 5.069 4.445 10.606 7.096 16.064-11.54 9.434-18.792 20.35-21.287 27.524-4.6 13.255-1.014 19.26 5.77 20.663 3.04.624 7.408-.78 10.682-2.183 4.054-1.326 8.966-3.588 13.49-6.94 7.797-5.77 15.282-13.801 14.892-24.64-.233-4.99-1.559-9.902-3.352-14.58 9.824-4.055 22.533-6.394 38.674-4.445 34.698 4.055 41.56 25.731 40.235 34.776-1.326 9.046-8.577 14.035-10.995 15.595-2.417 1.481-3.197 2.028-2.963 3.119.312 1.638 1.403 1.559 3.509 1.248 2.885-.469 18.245-7.408 18.87-24.093.935-21.446-19.416-44.837-55.518-44.604zM76.725 312.222c-11.462 12.554-27.602 17.31-34.464 13.256-7.407-4.289-4.523-22.768 9.59-36.102 8.578-8.109 19.728-15.594 27.057-20.195 1.638-1.013 4.133-2.494 7.096-4.288.468-.311.78-.468.78-.468.545-.312 1.17-.702 1.793-1.092 5.224 19.026.234 35.712-11.852 48.89zm83.82-56.998c-3.976 9.747-12.397 34.776-17.465 33.372-4.367-1.17-7.018-20.116-.859-38.83 3.12-9.435 9.747-20.663 13.646-25.03 6.316-7.017 13.177-9.357 14.893-6.472 2.028 3.744-7.72 30.878-10.214 36.96zm69.163 33.06c-1.716.86-3.275 1.482-3.977 1.015-.546-.312.701-1.481.701-1.481s8.655-9.28 12.086-13.568c1.95-2.494 4.288-5.379 6.783-8.655v.936c.001 11.227-10.76 18.713-15.593 21.754zm53.332-12.163c-1.247-.936-1.09-3.82 3.12-12.866 1.637-3.586 5.38-9.59 11.85-15.282.78 2.339 1.25 4.6 1.17 6.705-.077 14.035-10.057 19.26-16.14 21.443z" fill="#CF649A" fill-rule="nonzero"/>
</svg>