<svg viewBox="0 0 400 400" xmlns="http://www.w3.org/2000/svg">
  <g fill-rule="nonzero" fill="none">
    <path fill="#FFF" d="M200 0l176.767 100v200L200 400 23.233 300V100z"/>
    <path d="M345.2 293.1l-139.367 78.833v-61.4l86.834-47.766L345.2 293.1zm9.533-8.633V119.6l-51 29.433V255l51 29.467zm-300.5 8.633L193.6 371.933v-61.4l-86.833-47.766L54.233 293.1zm-9.533-8.633V119.6l51 29.433V255l-51 29.467zm5.967-175.534L193.6 28.067v59.366L102.033 137.8l-.7.4-50.666-29.267zm298.1 0L205.833 28.067v59.366L297.4 137.8l.7.4 50.667-29.267z" fill="#8ED6FB"/>
    <path d="M193.6 296.567l-85.667-47.1v-93.334L193.6 205.6v90.967m12.233 0l85.667-47.1v-93.334L205.833 205.6v90.967m-92.1-151.234l86-47.3 86 47.3-86 49.667-86-49.667" fill="#1C78C0"/>
  </g>
</svg>