<?xml version="1.0" encoding="UTF-8"?>
<svg width="300px" height="300px" viewBox="0 0 300 300" version="1.1" xmlns="http://www.w3.org/2000/svg" xmlns:xlink="http://www.w3.org/1999/xlink">
    <!-- Generator: Sketch 58 (84663) - https://sketch.com -->
    <title>Logo Single Object</title>
    <desc>Created with Sketch.</desc>
    <g id="Page-1" stroke="none" stroke-width="1" fill="none" fill-rule="evenodd">
        <path d="M131.607456,23 C199.300726,23 254.804854,76.40005 258.142357,143.295221 C279.618464,151.711534 295,172.752314 295,197.130598 C295,229.272204 268.88041,255.391794 236.738804,255.391794 C227.089067,255.391794 218.019765,253.070053 210.038779,248.861896 C188.562672,265.83963 161.209657,276.142357 131.607456,276.142357 C61.8101076,276.142357 5,219.404804 5,149.607456 C5,79.8101076 61.8101076,23 131.607456,23 Z M131.607456,44.0407806 C106.648737,44.0407806 83.7215412,52.6747561 65.5829372,67.1856392 C64.494621,67.0405304 63.3337503,66.967976 62.1003252,66.8954216 C43.5263948,66.3875407 29.6685014,77.1255942 21.4698524,97.6584939 L21.4698524,97.6584939 L16.1008256,111.298724 L29.3057293,105.059044 C31.6274706,104.043282 33.7315487,103.535402 35.6905179,103.535402 C35.8356267,103.535402 36.05329,103.68051 36.416062,103.898174 C29.7410558,117.756067 26.0407806,133.210158 26.0407806,149.607456 C26.0407806,167.897529 30.7029016,185.129329 38.9025134,200.164758 C39.4923923,191.12141 40.7878548,178.755911 42.4380786,164.190893 C44.9774831,142.497123 46.6462347,128.421566 47.0815612,121.891669 C47.6619965,112.894921 46.2109082,106.365024 42.6557418,101.939204 C40.3340005,99.1821366 38.0122592,97.7310483 35.6905179,97.7310483 C32.9334501,97.7310483 30.0312735,98.384038 26.8388792,99.8351263 C34.2394296,81.3337503 45.9932449,72.2644483 61.9552164,72.6997748 C76.2484363,73.3527646 83.2136602,81.9867401 82.995997,98.9644734 C82.7783338,110.57318 78.7878409,132.847386 71.0245184,166.512634 C75.0150113,159.547411 80.3114836,153.017513 86.9864899,147.140605 C96.4911183,138.941956 106.140856,134.951464 116.225919,134.951464 C122.97348,134.951464 128.850388,137.273205 133.49387,141.916688 C137.484363,146.487616 140.023768,152.001751 140.38654,158.531649 C135.380285,156.209907 129.86615,155.339254 124.424568,156.209907 C118.765324,157.008006 112.670753,159.982737 106.140856,164.988992 C100.481611,169.197148 96.2734551,173.405304 93.5163873,177.61346 C94.7498124,185.812109 100.263948,193.865649 109.478359,201.411308 C118.112334,208.303978 125.730548,211.714036 132.187891,211.714036 C142.127846,211.714036 153.446335,204.313485 166.070803,189.657493 L166.070803,189.657493 L171.149612,195.897173 C166.288466,204.966475 159.758569,213.382787 151.55992,220.710783 C140.241431,231.01351 129.068051,236.092319 118.112334,236.092319 C110.349012,236.092319 101.27971,231.884163 90.7593195,223.467851 C80.4565924,215.051539 73.3462597,206.1999 69.5734301,197.203152 C68.9444696,215.652661 68.9213246,228.717142 69.5039951,235.09988 C86.9361552,247.85312 108.402844,255.391794 131.607456,255.391794 C154.534651,255.391794 175.72054,247.991243 192.988491,235.584438 C183.919189,225.281711 178.477608,212.076808 178.477608,197.348261 C178.477608,165.134101 204.742307,139.087065 236.738804,139.087065 C231.442332,85.9046785 186.240931,44.0407806 131.607456,44.0407806 Z M236.738804,160.127846 C216.13335,160.127846 199.518389,176.887916 199.518389,197.348261 C199.518389,217.953715 216.351013,234.568677 236.738804,234.568677 C257.344258,234.568677 273.959219,217.736052 273.959219,197.348261 C273.959219,176.742807 257.126595,160.127846 236.738804,160.127846 Z" id="Logo-Single-Object" fill="#00807E"></path>
    </g>
</svg>