<svg viewBox="0 0 303 265" xmlns="http://www.w3.org/2000/svg">
  <path d="M132.537 2c69.794 0 127.02 55.057 130.461 124.029 22.143 8.677 38.002 30.37 38.002 55.506 0 33.139-26.93 60.069-60.07 60.069-9.949 0-19.3-2.394-27.528-6.733-22.143 17.505-50.344 28.127-80.865 28.127C60.573 262.998 2 204.5 2 132.537 2 60.573 60.573 2 132.537 2zm0 21.694c-25.734 0-49.372 8.902-68.074 23.863-1.122-.15-2.319-.225-3.59-.3-19.151-.523-33.439 10.548-41.892 31.718h0L13.445 93.04l13.615-6.433c2.394-1.048 4.563-1.571 6.583-1.571.15 0 .374.15.748.374-6.882 14.288-10.697 30.221-10.697 47.128 0 18.857 4.807 36.624 13.26 52.126.609-9.324 1.945-22.073 3.646-37.09 2.618-22.367 4.339-36.88 4.788-43.612.598-9.276-.898-16.009-4.564-20.572-2.393-2.843-4.787-4.339-7.181-4.339-2.843 0-5.835.674-9.126 2.17 7.63-19.076 19.748-28.427 36.206-27.978 14.737.673 21.918 9.575 21.694 27.08-.225 11.969-4.34 34.934-12.343 69.644 4.114-7.18 9.575-13.913 16.457-19.973 9.8-8.453 19.749-12.567 30.147-12.567 6.957 0 13.016 2.394 17.804 7.181 4.114 4.713 6.732 10.398 7.106 17.13-5.161-2.393-10.847-3.29-16.457-2.393-5.835.823-12.119 3.89-18.851 9.052-5.835 4.338-10.174 8.677-13.017 13.016 1.272 8.453 6.957 16.756 16.458 24.536 8.902 7.107 16.756 10.623 23.414 10.623 10.249 0 21.918-7.63 34.935-22.741h0l5.236 6.433c-5.012 9.35-11.745 18.028-20.198 25.584-11.67 10.622-23.19 15.859-34.485 15.859-8.005 0-17.355-4.34-28.202-13.017-10.623-8.677-17.954-17.804-21.844-27.08-.648 19.023-.672 32.492-.071 39.073 17.973 13.15 40.106 20.922 64.03 20.922 23.64 0 45.483-7.63 63.287-20.422-9.351-10.623-14.962-24.237-14.962-39.423 0-33.214 27.08-60.07 60.07-60.07-5.461-54.832-52.065-97.995-108.394-97.995zm108.394 119.69c-21.245 0-38.376 17.28-38.376 38.375 0 21.245 17.355 38.376 38.376 38.376 21.245 0 38.375-17.355 38.375-38.376 0-21.245-17.355-38.375-38.375-38.375z"  stroke-width="3" fill-rule="evenodd"/>
</svg>