<svg viewBox="0 0 400 400" xmlns="http://www.w3.org/2000/svg">
  <g fill-rule="nonzero" fill="none">
    <path d="M372.432 190.237c-.36.072-.72.865-.72 1.297-.072 2.884-.144 10.526-.144 15.717 0 .144.216.433.432.433 1.081.071 3.677.143 5.912.143 3.1 0 4.902-.432 5.912-.864 2.595-1.298 3.82-4.11 3.82-7.21 0-6.993-4.902-9.66-12.184-9.66-.505-.073-1.945-.073-3.028.144zm18.602 32.226c0-7.137-5.264-11.103-14.78-11.103-.433 0-3.461-.072-4.182.072-.217.073-.504.217-.504.434 0 5.118-.073 13.265.144 16.437.143 1.37 1.154 3.317 2.38 3.893 1.296.721 4.253.865 6.271.865 5.696 0 10.67-3.172 10.67-10.598zm-33.308-36.191c.72 0 2.883.216 8.434.216 5.263 0 9.445-.144 14.563-.144 6.272 0 14.924 2.234 14.924 11.607 0 4.614-3.245 8.291-7.498 10.094-.215.071-.215.215 0 .287 6.056 1.515 11.392 5.263 11.392 12.328 0 6.922-4.326 11.32-10.599 14.06-3.82 1.657-8.579 2.234-13.41 2.234-3.677 0-13.553-.432-19.032-.288-.577-.217.505-2.812 1.009-3.244 1.298-.073 2.307-.145 3.677-.577 1.947-.504 2.162-1.082 2.45-4.037.145-2.524.145-11.464.145-17.808 0-8.723.073-14.635 0-17.519-.072-2.234-.865-2.956-2.45-3.389-1.227-.215-3.245-.504-4.904-.72-.36-.361.865-2.813 1.299-3.1zm-41.6 44.843c1.731 1.369 5.12 1.945 8.147 1.945 3.893 0 7.786-.72 11.536-4.11 3.82-3.459 6.488-8.794 6.488-17.3 0-8.148-3.1-14.781-9.445-18.673-3.604-2.236-8.218-3.172-13.554-3.172-1.586 0-3.1.072-4.036.504-.217.144-.721.793-.721 1.153-.145 1.442-.145 12.544-.145 19.033 0 6.705 0 16.078.145 17.159 0 1.082.504 2.74 1.586 3.46h-.001zM299.76 186.27c1.37 0 6.633.217 9.156.217 4.543 0 7.787-.216 16.366-.216 7.21 0 13.266 1.946 17.591 5.623 5.263 4.542 8.004 10.814 8.004 18.456 0 10.887-4.975 17.16-9.95 20.764-4.974 3.676-11.463 5.839-20.691 5.839-4.902 0-13.338-.144-20.331-.216h-.072c-.36-.649.576-3.172 1.153-3.244 1.875-.217 2.38-.29 3.317-.649 1.513-.577 1.802-1.37 2.019-4.037.216-4.975.144-10.959.144-17.736 0-4.83.072-14.275-.073-17.303-.216-2.523-1.297-3.172-3.46-3.605-1.081-.216-2.524-.505-4.542-.72-.289-.506 1.009-2.74 1.37-3.172z" fill="#8E714E"/>
    <path d="M212.526 233.926c-1.803-.217-3.1-.504-4.686-1.225-.217-.145-.578-.865-.578-1.154-.143-2.524-.143-9.733-.143-14.563 0-3.893-.649-7.282-2.307-9.66-1.947-2.741-4.758-4.326-8.364-4.326-3.171 0-7.425 2.162-10.958 5.19-.072.072-.649.578-.577-.216 0-.793.145-2.379.217-3.461.072-1.01-.505-1.513-.505-1.513-2.307 1.153-8.795 2.667-11.175 2.882-1.73.362-2.162 2.02-.36 2.597h.072c1.946.576 3.244 1.225 4.253 1.875.72.576.65 1.37.65 2.018.07 5.407.07 13.698-.145 18.24-.072 1.803-.576 2.45-1.875 2.74l.145-.073c-1.01.217-1.803.432-3.028.577-.433.433-.433 2.74 0 3.244.793 0 4.974-.216 8.436-.216 4.757 0 7.209.216 8.434.216.505-.576.65-2.74.361-3.244-1.37-.072-2.38-.216-3.316-.505-1.298-.289-1.659-.936-1.732-2.45-.143-3.822-.143-11.897-.143-17.376 0-1.514.432-2.235.864-2.668 1.659-1.44 4.327-2.45 6.706-2.45 2.307 0 3.82.72 4.974 1.658 1.586 1.297 2.09 3.172 2.307 4.542.36 3.1.217 9.228.217 14.563 0 2.884-.217 3.605-1.297 3.965-.506.216-1.803.505-3.318.648-.504.506-.36 2.74 0 3.246 2.091 0 4.543-.217 8.147-.217 4.47 0 7.354.217 8.508.217.36-.433.504-2.524.216-3.101zm19.97-27.54c-3.82 0-6.2 2.956-6.2 7.57 0 4.686 2.09 10.093 8.002 10.093 1.01 0 2.885-.433 3.749-1.442 1.37-1.297 2.308-3.893 2.308-6.633 0-5.983-2.957-9.588-7.859-9.588zm-.505 31.866a6.197 6.197 0 00-3.1.793c-3.028 1.946-4.397 3.82-4.397 6.057 0 2.09.793 3.747 2.523 5.19 2.09 1.802 4.974 2.667 8.651 2.667 7.354 0 10.598-3.965 10.598-7.857 0-2.741-1.37-4.543-4.18-5.552-2.02-.866-5.696-1.298-10.095-1.298zm.505 18.745c-4.398 0-7.57-.938-10.31-3.028-2.667-2.019-3.82-5.047-3.82-7.138 0-.576.144-2.163 1.442-3.604.792-.866 2.523-2.524 6.633-5.336.143-.071.215-.143.215-.289 0-.143-.144-.288-.288-.359-3.388-1.298-4.398-3.39-4.687-4.542v-.145c-.07-.433-.215-.865.434-1.297.505-.36 1.226-.793 2.018-1.297 1.226-.722 2.523-1.515 3.316-2.164.145-.144.145-.288.145-.432 0-.145-.145-.29-.29-.36-5.045-1.66-7.568-5.408-7.568-11.032 0-3.676 1.658-6.993 4.613-9.083 2.019-1.586 7.066-3.533 10.382-3.533h.217c3.388.072 5.262.793 7.93 1.73 1.442.505 2.812.72 4.687.72 2.81 0 4.037-.864 5.045-1.873.073.144.217.505.29 1.442.071.937-.217 2.307-.938 3.316-.577.793-1.874 1.37-3.172 1.37h-.361c-1.298-.144-1.875-.289-1.875-.289l-.288.145c-.071.144 0 .288.072.504l.073.145c.144.648.432 2.595.432 3.1 0 5.912-2.379 8.506-4.902 10.453-2.452 1.802-5.263 2.956-8.436 3.245-.071 0-.359 0-1.009.072-.36 0-.865.072-.937.072h-.072c-.577.144-2.018.865-2.018 2.09 0 1.081.648 2.38 3.748 2.596.649.072 1.297.072 2.019.145 4.11.287 9.228.648 11.607 1.441 3.316 1.225 5.407 4.181 5.407 7.714 0 5.336-3.82 10.31-10.165 13.41-3.1 1.37-6.2 2.09-9.589 2.09zm41.094-50.25c-1.513 0-2.884.36-3.893 1.08-2.811 1.73-4.253 5.192-4.253 10.238 0 9.445 4.758 16.078 11.535 16.078 2.019 0 3.605-.577 4.974-1.73 2.09-1.732 3.173-5.192 3.173-10.022 0-9.372-4.687-15.645-11.535-15.645h-.001zm1.298 30.856c-12.256 0-16.654-9.012-16.654-17.447 0-5.911 2.38-10.454 7.137-13.698 3.39-2.09 7.427-3.244 11.031-3.244 9.372 0 15.933 6.705 15.933 16.366 0 6.56-2.595 11.75-7.57 14.923-2.38 1.586-6.488 3.1-9.877 3.1zm-128.473-30.857c-1.514 0-2.884.36-3.894 1.081-2.81 1.73-4.253 5.192-4.253 10.238 0 9.445 4.758 16.078 11.535 16.078 2.019 0 3.605-.577 4.975-1.73 2.09-1.732 3.172-5.192 3.172-10.022 0-9.372-4.614-15.645-11.535-15.645zm1.298 30.857c-12.257 0-16.654-9.012-16.654-17.447 0-5.911 2.379-10.454 7.136-13.698 3.39-2.09 7.427-3.244 11.032-3.244 9.372 0 15.932 6.705 15.932 16.366 0 6.56-2.595 11.75-7.57 14.923-2.307 1.586-6.416 3.1-9.876 3.1zm-82.405-.721c-.145-.216-.29-.865-.217-1.658 0-.577.145-.937.217-1.081 1.514-.217 2.307-.434 3.172-.65 1.442-.36 2.018-1.152 2.09-2.955.218-4.325.218-12.545.145-18.24v-.145c0-.648 0-1.442-.793-2.019-1.154-.72-2.524-1.368-4.326-1.875-.648-.214-1.081-.575-1.01-1.007 0-.433.434-.938 1.371-1.082 2.379-.217 8.578-1.73 11.03-2.812.144.144.36.577.36 1.154l-.071.792a29.61 29.61 0 00-.145 2.668c0 .288.29.505.577.505.144 0 .289-.072.433-.145 4.614-3.605 8.795-4.902 10.957-4.902 3.534 0 6.274 1.658 8.365 5.118.143.218.288.29.504.29.144 0 .36-.072.432-.217 4.254-3.244 8.508-5.191 11.319-5.191 6.705 0 10.67 4.975 10.67 13.41 0 2.379 0 5.479-.072 8.291 0 2.523-.071 4.83-.071 6.489 0 .359.503 1.513 1.296 1.73 1.01.504 2.38.72 4.182 1.009h.072c.145.504-.143 2.379-.432 2.74-.433 0-1.082 0-1.802-.072a106.413 106.413 0 00-5.48-.145c-4.47 0-6.776.072-9.012.216-.143-.576-.216-2.307 0-2.74 1.298-.215 1.947-.432 2.74-.648 1.443-.433 1.803-1.082 1.875-2.956 0-1.37.288-13.05-.145-15.861-.432-2.884-2.595-6.272-7.354-6.272-1.802 0-4.613.721-7.353 2.811-.144.145-.289.505-.289.721v.073c.289 1.513.289 3.244.289 5.912v4.685c0 3.245-.073 6.273 0 8.58 0 1.586.938 1.946 1.73 2.235.433.071.72.144 1.082.216.648.144 1.297.289 2.307.505.144.289.144 1.225-.072 2.018-.073.433-.217.649-.29.721-2.45-.071-4.973-.144-8.65-.144-1.081 0-2.956.073-4.542.073-1.299 0-2.524.071-3.244.071-.073-.144-.217-.648-.217-1.442 0-.648.144-1.153.289-1.297.36-.072.648-.144 1.01-.144.863-.145 1.585-.29 2.306-.433 1.226-.36 1.658-1.01 1.73-2.595.216-3.605.433-13.914-.072-16.51-.865-4.182-3.244-6.272-7.065-6.272-2.235 0-5.047 1.08-7.354 2.812-.36.288-.649 1.008-.649 1.657v4.254c0 5.19 0 11.68.072 14.492.073.864.36 1.874 2.019 2.234.36.072.937.216 1.658.289l1.297.216c.146.432.073 2.163-.215 2.74-.721 0-1.586-.072-2.596-.072-1.514-.073-3.46-.145-5.623-.145-2.523 0-4.326.072-5.768.145-1.01-.145-1.802-.145-2.667-.145z" fill="#442D22"/>
    <path d="M27.385 254.185l-2.955-1.01s.36-15.067-5.047-16.148c-3.604-4.182.578-177.354 13.555-.578 0 0-4.47 2.235-5.264 6.056-.865 3.75-.289 11.68-.289 11.68z" fill="#FFF"/>
    <path d="M27.385 254.185l-2.955-1.01s.36-15.067-5.047-16.148c-3.604-4.182.578-177.354 13.555-.578 0 0-4.47 2.235-5.264 6.056-.865 3.75-.289 11.68-.289 11.68z" fill="#A6A385"/>
    <path d="M28.972 239.623s25.883-17.016 19.826-52.415c-5.84-25.737-19.61-34.172-21.124-37.417-1.658-2.307-3.244-6.343-3.244-6.343l1.082 71.589c0 .072-2.235 21.917 3.46 24.586" fill="#FFF"/>
    <path d="M28.972 239.623s25.883-17.016 19.826-52.415c-5.84-25.737-19.61-34.172-21.124-37.417-1.658-2.307-3.244-6.343-3.244-6.343l1.082 71.589c0 .072-2.235 21.917 3.46 24.586" fill="#499D4A"/>
    <path d="M22.916 240.559S-1.38 223.977.062 194.779c1.37-29.199 18.528-43.545 21.844-46.14 2.164-2.308 2.235-3.173 2.38-5.48 1.514 3.244 1.226 48.52 1.441 53.854.649 20.547-1.153 39.653-2.81 43.546z" fill="#FFF"/>
    <path d="M22.916 240.559S-1.38 223.977.062 194.779c1.37-29.199 18.528-43.545 21.844-46.14 2.164-2.308 2.235-3.173 2.38-5.48 1.514 3.244 1.226 48.52 1.441 53.854.649 20.547-1.153 39.653-2.81 43.546z" fill="#58AA50"/>
  </g>
</svg>