<svg viewBox="0 0 400 400" xmlns="http://www.w3.org/2000/svg">
  <g fill-rule="nonzero" fill="none">
    <g fill="#83CD29">
      <path d="M368.008 183.321c-.972 0-1.917.2-2.754.674l-26.475 15.29c-1.713.987-2.755 2.85-2.755 4.835v30.522c0 1.982 1.042 3.844 2.755 4.834l6.914 3.991c3.36 1.656 4.598 1.63 6.127 1.63 4.973 0 7.813-3.018 7.813-8.263v-30.13c0-.425-.369-.73-.787-.73h-3.316c-.425 0-.787.305-.787.73v30.13c0 2.325-2.422 4.663-6.352 2.698l-7.195-4.216c-.255-.138-.45-.382-.45-.674V204.12c0-.29.193-.584.45-.73l26.419-15.233a.78.78 0 01.787 0l26.42 15.233c.25.152.45.432.45.731v30.523c0 .291-.148.59-.395.73l-26.475 15.233a.814.814 0 01-.787 0l-6.802-4.047a.707.707 0 00-.674 0c-1.877 1.064-2.23 1.188-3.991 1.799-.434.151-1.093.387.225 1.125l8.88 5.226a5.466 5.466 0 002.756.732 5.43 5.43 0 002.754-.73l26.475-15.234c1.714-.997 2.754-2.852 2.754-4.834V204.12c0-1.983-1.04-3.844-2.754-4.834l-26.475-15.29c-.83-.473-1.782-.674-2.754-.674h-.001z"/>
      <path d="M375.09 205.131c-7.538 0-12.028 3.209-12.028 8.545 0 5.787 4.456 7.378 11.692 8.094 8.656.847 9.33 2.118 9.33 3.822 0 2.956-2.356 4.216-7.925 4.216-6.997 0-8.535-1.747-9.05-5.228-.06-.373-.349-.675-.73-.675h-3.43a.803.803 0 00-.787.788c0 4.455 2.424 9.724 13.997 9.724 8.378 0 13.21-3.288 13.21-9.05 0-5.71-3.903-7.244-12.03-8.319-8.21-1.086-8.994-1.618-8.994-3.541 0-1.587.664-3.71 6.746-3.71 5.432 0 7.44 1.171 8.263 4.834.072.344.375.618.73.618h3.43c.211 0 .416-.13.562-.281.144-.162.245-.344.225-.562-.531-6.308-4.738-9.275-13.21-9.275z"/>
    </g>
    <path d="M212.36 143.299c-.296 0-.587.078-.844.224-.52.304-.84.86-.843 1.462v43.002c0 .422-.196.8-.561 1.011a1.173 1.173 0 01-1.18 0l-7.027-4.046a3.367 3.367 0 00-3.373 0l-28.05 16.188c-1.048.605-1.685 1.769-1.685 2.98v32.377c0 1.21.638 2.317 1.686 2.923l28.049 16.189a3.36 3.36 0 003.373 0l28.049-16.19a3.366 3.366 0 001.687-2.922v-80.719a3.427 3.427 0 00-1.743-2.98l-16.695-9.33c-.262-.147-.552-.173-.843-.17zM31.923 183.715c-.535.02-1.038.115-1.518.393l-28.05 16.189A3.36 3.36 0 00.67 203.22l.056 43.452c0 .604.312 1.166.843 1.46a1.638 1.638 0 001.686 0l16.639-9.555c1.054-.626 1.742-1.715 1.742-2.923v-20.292c0-1.211.637-2.322 1.687-2.924l7.082-4.103a3.321 3.321 0 011.686-.45c.579 0 1.172.145 1.686.45l7.083 4.103a3.356 3.356 0 011.687 2.924v20.291c0 1.208.695 2.305 1.742 2.924l16.638 9.556a1.638 1.638 0 001.687 0 1.69 1.69 0 00.844-1.462l.055-43.451a3.344 3.344 0 00-1.686-2.923l-28.05-16.19c-.474-.277-.979-.37-1.517-.392h-.337zm252.05.393c-.586 0-1.16.148-1.686.45l-28.05 16.189a3.364 3.364 0 00-1.686 2.923v32.377c0 1.218.686 2.321 1.742 2.923l27.825 15.852c1.027.586 2.282.63 3.316.055l16.864-9.387c.535-.297.897-.852.899-1.461a1.66 1.66 0 00-.843-1.462l-28.218-16.189c-.528-.301-.9-.912-.9-1.518v-10.117c0-.606.376-1.16.9-1.462l8.769-5.06a1.684 1.684 0 011.686 0l8.768 5.06c.523.3.845.858.844 1.461v7.982a1.68 1.68 0 00.843 1.461 1.67 1.67 0 001.686 0l16.808-9.779a3.378 3.378 0 001.687-2.923v-7.813c0-1.207-.641-2.317-1.687-2.923l-27.88-16.19a3.343 3.343 0 00-1.687-.448v-.001zm-83.868 24.17c.147 0 .32.037.45.113l9.613 5.564c.26.151.45.43.45.73v11.13c0 .303-.188.581-.45.732l-9.613 5.565a.85.85 0 01-.843 0l-9.611-5.565c-.262-.152-.45-.429-.45-.731v-11.13c0-.302.189-.578.45-.73l9.612-5.565a.74.74 0 01.393-.111v-.001z" fill="#404137"/>
    <path d="M116.183 183.94c-.585 0-1.163.148-1.686.45l-28.05 16.132c-1.049.604-1.686 1.77-1.686 2.979v32.377c0 1.211.638 2.317 1.687 2.924l28.049 16.188a3.357 3.357 0 003.373 0l28.049-16.188a3.366 3.366 0 001.686-2.924v-32.377c0-1.211-.638-2.375-1.686-2.98l-28.05-16.132a3.357 3.357 0 00-1.686-.45zm167.733 28.892c-.111 0-.236 0-.336.056l-5.396 3.148a.656.656 0 00-.338.562v6.183c0 .233.134.446.338.563l5.396 3.091a.587.587 0 00.618 0l5.396-3.092a.66.66 0 00.337-.562v-6.183a.66.66 0 00-.337-.562l-5.396-3.148c-.1-.06-.17-.055-.282-.055v-.001z" fill="#83CD29"/>
  </g>
</svg>